<?xml version="1.0" encoding="UTF-8"?>
<svg id="Ebene_2" xmlns="http://www.w3.org/2000/svg" viewBox="0 0 306.33 418.17">
  <defs>
    <style>
      .cls-1 {
        fill: #ffaa07;
      }
    </style>
  </defs>
  <g id="Ebene_1-2" data-name="Ebene_1">
    <g>
      <path class="cls-1" d="M.37,417.61v-165.39c1.74,1.13,3.19,2.01,4.58,2.98,20.66,14.45,43.35,21.98,68.81,21.72,37.99-.4,75.99-.15,113.99-.06,10.27.03,17.99,4.82,22.31,14.13,4.23,9.12,2.91,17.96-3.32,25.8-5.36,6.74-12.69,9.15-21.2,9.13-43.33-.1-86.66-.04-129.99-.04-1.96,0-3.91,0-6.15,0v42.63c1.49.11,2.93.3,4.37.3,44.66.02,89.33.12,133.99-.02,32.07-.1,58.79-20.27,66.91-50.09,11.53-42.33-20.41-84.7-64.31-84.95-39.5-.22-79,.4-118.49-.2-30.6-.47-53.29-14.83-65.93-42.96-19.78-44.04,12.29-96.28,60.54-97.62,41.8-1.16,83.65-.43,125.48-.23,12.99.06,23.14,11.11,23.15,24.06,0,13.52-10.47,24.45-24.25,24.81-11.33.29-22.66.07-34,.08-28.66,0-57.33-.07-85.99.05-11.05.05-19.76,7.86-21.41,18.67-1.48,9.72,4.8,19.95,14.58,22.92,3.43,1.04,7.22,1.25,10.84,1.26,37.83.08,75.66.04,113.49.05,56.15.03,102.28,36.63,115.01,91.21,16.31,69.95-37.01,140.3-108.91,141.68-63.81,1.22-127.65.32-191.48.35-.79,0-1.59-.15-2.63-.26Z"/>
      <path class="cls-1" d="M.25,73.56V.03C1.98.03,3.57.03,5.16.03c61.13,0,122.27-.07,183.4.01,58.17.08,105.84,40,115.92,97.36,4.79,27.23-.17,52.99-13.58,77.14-.39.7-.92,1.32-.93,1.34-14.14-8.17-28.06-16.21-41.37-23.9,2.44-8.27,6.22-17.09,7.55-26.26,5.82-40.18-25.37-75.97-66.09-76.21-35.31-.21-70.63.04-105.94-.1-16.19-.06-32.28.12-47.92,5.25-12.77,4.19-24.39,10.45-35.94,18.9Z"/>
    </g>
  </g>
</svg>