<?xml version="1.0" encoding="UTF-8"?>
<svg id="Ebene_2" xmlns="http://www.w3.org/2000/svg" xmlns:xlink="http://www.w3.org/1999/xlink" viewBox="0 0 392.34 93.86">
  <defs>
    <style>
      .cls-1 {
        fill: none;
      }

      .cls-2 {
        fill: #fff;
      }

      .cls-2, .cls-3, .cls-4 {
        isolation: isolate;
      }

      .cls-2, .cls-4 {
        font-family: HelveticaNeue-Bold, 'Helvetica Neue';
        font-size: 60px;
        font-weight: 700;
      }

      .cls-5, .cls-4 {
        fill: #ffaa07;
      }

      .cls-6 {
        clip-path: url(#clippath);
      }
    </style>
    <clipPath id="clippath">
      <rect class="cls-1" width="60.47" height="83"/>
    </clipPath>
  </defs>
  <g id="Ebene_1-2" data-name="Ebene_1">
    <g>
      <g id="Group_9">
        <g class="cls-6">
          <g id="Group_8">
            <path id="Path_7" class="cls-5" d="M.07,82.89v-32.83c.34.22.63.4.9.59,3.94,2.86,8.71,4.38,13.58,4.31,7.5-.08,15-.03,22.5-.01,1.91-.08,3.66,1.04,4.4,2.8.83,1.68.58,3.7-.65,5.12-1.02,1.25-2.58,1.92-4.19,1.81-8.55-.02-17.11-.02-25.66,0h-1.21v8.46c.3.02.58.06.86.06,8.82,0,17.63.02,26.45,0,7.4.14,13.51-5.74,13.66-13.14.14-7.4-5.74-13.51-13.14-13.66-7.8-.04-15.59.08-23.39-.04-6.04-.09-10.52-2.94-13.01-8.53-3.9-8.74,2.43-19.11,11.95-19.38,8.25-.23,16.51-.08,24.77-.05,2.57.07,4.61,2.2,4.57,4.78.03,2.68-2.11,4.88-4.79,4.93-2.24.06-4.47.01-6.71.01-5.66,0-11.32-.01-16.98.01-2.14,0-3.95,1.58-4.23,3.7-.26,2.01.95,3.92,2.88,4.55.7.19,1.42.27,2.14.25,7.47.02,14.94,0,22.4.01,10.91-.13,20.4,7.44,22.7,18.1,3.22,13.88-7.31,27.85-21.5,28.12-12.6.24-25.2.06-37.8.07-.16,0-.31-.03-.52-.05"/>
            <path id="Path_8" class="cls-5" d="M.05,14.6V0h.97c12.07,0,24.13,0,36.2,0,11.36-.1,21.08,8.11,22.88,19.33.93,5.26-.02,10.68-2.68,15.31-.05.09-.12.18-.18.27l-8.17-4.74c.62-1.7,1.12-3.44,1.49-5.21,1.04-7.24-3.97-13.95-11.21-14.99-.61-.09-1.22-.13-1.83-.14-6.97-.04-13.94,0-20.91-.02-3.19-.17-6.38.18-9.46,1.04-2.55.86-4.95,2.13-7.1,3.75"/>
          </g>
        </g>
      </g>
      <g id="Sound_" class="cls-3">
        <text class="cls-2" transform="translate(74 65)"><tspan x="0" y="0">Sound</tspan></text>
      </g>
      <g id="Base" class="cls-3">
        <text class="cls-4" transform="translate(249 65)"><tspan x="0" y="0">Base</tspan></text>
      </g>
    </g>
  </g>
</svg>